# xmcd CD database file
#
# Track frame offsets:
#	150
#	30918
#	60532
#	93514
#	130561
#	158882
#	189870
#	224521
#	245110
#	274790
#	311609
#
# Disc length: 4571 seconds
#
# Revision: 0
# Processed by: cddbd v1.5.2PL0 Copyright (c) Steve Scherf et al.
# Submitted via: CDex 1.70beta2
#
DISCID=9211d90b
DTITLE=Blue Note - Best Blue Note 100 Disc2 Big Hits
DYEAR=2009
DGENRE=Jazz
TTITLE0=Nica's Dream
TTITLE1=Syeeda's Song Flute
TTITLE2=Undercurrent
TTITLE3=Mosaic
TTITLE4=Little Messenger
TTITLE5=Mighty Moe And Joe
TTITLE6=We Six
TTITLE7=Us Three
TTITLE8=Los Malos Hombres
TTITLE9=Witch Hunt
TTITLE10=Appointment In Ghana
EXTD=YEAR: 2009
EXTT0=
EXTT1=
EXTT2=
EXTT3=
EXTT4=
EXTT5=
EXTT6=
EXTT7=
EXTT8=
EXTT9=
EXTT10=
PLAYORDER=
